<?xml version="1.0" encoding="UTF-8"?>
<!-- Created with Inkscape (http://www.inkscape.org/) -->
<svg id="SVGRoot" width="1024" height="1024" version="1.1" viewBox="0 0 1024 1024" xmlns="http://www.w3.org/2000/svg" xmlns:cc="http://creativecommons.org/ns#" xmlns:dc="http://purl.org/dc/elements/1.1/" xmlns:rdf="http://www.w3.org/1999/02/22-rdf-syntax-ns#">
 <defs>
  <filter id="filter7807" x="-1" y="-1" width="3" height="3" color-interpolation-filters="sRGB">
   <feFlood flood-color="rgb(0,0,0)" flood-opacity=".8" result="flood"/>
   <feComposite in="flood" in2="SourceGraphic" operator="in" result="composite1"/>
   <feGaussianBlur in="composite1" result="blur" stdDeviation="5.7"/>
   <feOffset dx="3.6" dy="4.2" result="offset"/>
   <feComposite in="SourceGraphic" in2="offset" result="composite2"/>
  </filter>
 </defs>
 <metadata>
  <rdf:RDF>
   <cc:Work rdf:about="">
    <dc:format>image/svg+xml</dc:format>
    <dc:type rdf:resource="http://purl.org/dc/dcmitype/StillImage"/>
    <dc:title/>
   </cc:Work>
  </rdf:RDF>
 </metadata>
 <g transform="translate(0,-56)">
  <path transform="matrix(4 0 0 4 -.00076 56)" d="m129.49 18.459c-20.237 0-38.943 4.8941-56.014 14.67-16.972 9.6789-30.432 22.939-40.293 39.701-9.8676 16.773-14.812 35.226-14.812 55.24 0 14.728 2.9328 28.878 8.7812 42.393v4e-3c0.44801 1.0281 0.92909 2.0276 1.4004 3.0352l18.396-17.418c-3.0159-8.9086-4.5234-18.238-4.5234-28.014 0-15.414 3.8306-29.781 11.523-43.219 7.698-13.446 18.014-24.102 31.016-32.041l0.0039-0.0039c13.083-7.9333 27.075-11.877 42.092-11.877 11.761 0 22.962 2.2921 33.654 6.8887 10.713 4.6052 19.883 10.819 27.559 18.646l0.01 0.0059 6e-3 0.0059c7.7613 7.7359 13.892 16.995 18.404 27.824v0.0059l4e-3 0.0059c4.5932 10.811 6.8848 22.135 6.8848 34.033 0 9.3294-1.5046 18.349-4.4648 27.094l18.631 17.477c0.36997-0.81748 0.75709-1.6198 1.1113-2.4512l2e-3 -0.01c5.8461-13.512 8.7754-27.66 8.7754-42.385 0-14.633-2.927-28.731-8.7715-42.24l-6e-3 -0.01172c-5.7452-13.575-13.517-25.28-23.297-35.07l-2e-3 -0.0039c-9.6892-9.7877-21.208-17.615-34.516-23.473l-2e-3 -2e-3c-13.248-5.87-27.117-8.8105-41.553-8.8105zm-1.4883 66.855c-23.574 2.31e-4 -42.685 19.111-42.686 42.686 2.16e-4 23.574 19.111 42.685 42.686 42.686 23.575 1e-3 42.689-19.11 42.689-42.686-2e-4 -23.575-19.114-42.687-42.689-42.686zm0 23.963c10.34-1.3e-4 18.723 8.3823 18.723 18.723 1.3e-4 10.34-8.3823 18.723-18.723 18.723-10.339-1e-3 -18.719-8.3834-18.719-18.723-1e-4 -10.339 8.3795-18.721 18.719-18.723zm69.82 68.748c-2.8179 4.0792-5.9405 7.8789-9.4043 11.371-1.9627 1.9787-4.0204 3.8534-6.168 5.6328l17.049 15.994c2.109-1.8031 4.1641-3.6604 6.123-5.6211 3.5012-3.4721 6.7331-7.1901 9.7168-11.131zm-139.39 0.49219v0.0117l-17.1 16.193c2.8624 3.7554 5.9303 7.3256 9.2441 10.674h0.0118c2.073 2.0555 4.2446 4.0025 6.4785 5.8848l16.892-15.994c-5.8812-4.8718-11.053-10.458-15.527-16.77zm102.43 29.633c-10.438 4.5236-21.325 6.7891-32.723 6.7891-11.573 0-22.488-2.1852-32.791-6.5664l-17.629 16.691c2.5765 1.3424 5.205 2.6284 7.9277 3.8106h0.0157c13.603 5.7729 27.777 8.666 42.477 8.666s28.831-2.8918 42.346-8.666h8e-3c2.8311-1.2291 5.5632-2.5642 8.2324-3.9668z" fill="#fff" filter="url(#filter7807)"/>
 </g>
</svg>
